<?xml version="1.0" standalone="no"?>
<!DOCTYPE svg PUBLIC "-//W3C//DTD SVG 20010904//EN"
 "http://www.w3.org/TR/2001/REC-SVG-20010904/DTD/svg10.dtd">
<svg version="1.0" xmlns="http://www.w3.org/2000/svg"
 width="1186.000000pt" height="1186.000000pt" viewBox="0 0 1186.000000 1186.000000"
 preserveAspectRatio="xMidYMid meet">
<metadata>
Created by potrace 1.11, written by Peter Selinger 2001-2013
</metadata>
<g transform="translate(0.000000,1186.000000) scale(0.100000,-0.100000)"
fill="#000000" stroke="none">
<path d="M1530 10855 c-305 -62 -487 -244 -530 -532 -8 -47 -10 -215 -8 -480
4 -388 5 -412 27 -483 72 -241 222 -395 437 -450 76 -20 124 -20 3468 -20
3352 0 3392 0 3474 20 225 54 390 193 457 387 39 110 47 244 43 642 -4 325 -7
363 -26 436 -67 248 -211 403 -437 472 -57 17 -208 18 -3450 19 -2772 2 -3402
0 -3455 -11z"/>
<path d="M1560 8230 c-265 -40 -459 -194 -538 -424 l-27 -81 0 -1115 0 -1115
23 -79 c67 -233 205 -383 412 -448 l75 -23 1455 0 1455 0 94 33 c228 79 360
216 418 432 17 60 18 146 18 1165 l0 1100 -23 80 c-38 134 -87 221 -172 306
-79 80 -147 120 -265 155 -56 17 -144 18 -1465 20 -773 1 -1430 -2 -1460 -6z"/>
<path d="M5849 8226 c-106 -28 -192 -105 -230 -205 -29 -78 -23 -195 13 -266
32 -61 103 -129 166 -158 l47 -22 1400 0 1400 0 55 26 c261 123 258 483 -5
606 l-60 28 -1370 2 c-1065 1 -1380 -1 -1416 -11z"/>
<path d="M9873 4373 l3 -3528 21 -90 c44 -188 110 -319 221 -436 170 -181 437
-295 717 -306 478 -19 822 216 959 656 60 191 57 5 53 3211 l-3 2935 -21 95
c-103 464 -370 756 -833 911 -209 70 -296 79 -736 79 l-384 0 3 -3527z"/>
<path d="M5816 6900 c-136 -53 -206 -150 -214 -295 -3 -65 0 -91 17 -136 41
-109 136 -186 256 -209 44 -8 431 -10 1410 -8 l1350 3 56 26 c257 121 274 464
29 598 l-65 36 -1395 2 c-1352 2 -1396 2 -1444 -17z"/>
<path d="M5854 5596 c-109 -27 -196 -103 -235 -205 -17 -45 -20 -72 -17 -136
7 -132 72 -230 187 -284 l56 -26 1405 0 1405 0 65 36 c245 134 228 477 -29
598 l-56 26 -1365 2 c-1064 1 -1376 -1 -1416 -11z"/>
<path d="M1229 4274 c-68 -21 -140 -72 -177 -128 -117 -176 -57 -398 134 -492
l59 -29 3695 0 3695 0 60 28 c263 123 266 483 5 606 l-55 26 -3685 2 c-3169 1
-3691 0 -3731 -13z"/>
<path d="M1230 2961 c-88 -27 -174 -104 -212 -189 -16 -36 -22 -67 -22 -132 0
-74 3 -92 29 -143 36 -73 108 -139 181 -167 l55 -20 3697 2 3697 3 46 23 c103
51 167 135 189 249 27 148 -64 309 -206 363 -55 20 -58 20 -3742 19 -2028 0
-3698 -4 -3712 -8z"/>
<path d="M1247 1649 c-96 -23 -182 -94 -226 -188 -21 -46 -26 -70 -26 -136 0
-71 4 -89 33 -147 37 -76 82 -120 162 -157 l55 -26 3700 0 3700 0 47 22 c71
32 141 103 173 174 74 165 -3 363 -172 442 l-48 22 -3680 2 c-2123 0 -3696 -3
-3718 -8z"/>
</g>
</svg>
